<svg width="28" height="28" viewBox="0 0 28 28" fill="none" xmlns="http://www.w3.org/2000/svg">
<circle cx="14" cy="14" r="14" fill="#CA1611"/>
<path d="M9.2603 18.4326C8.92 18.7728 8.90379 19.3803 9.2684 19.7286C9.6168 20.0932 10.2326 20.077 10.5729 19.7367L14.5025 15.8082L18.4322 19.7367C18.7806 20.0851 19.3802 20.0932 19.7286 19.7286C20.0932 19.3803 20.0851 18.7728 19.7367 18.4245L15.807 14.496L19.7367 10.5755C20.0851 10.2191 20.0932 9.61966 19.7286 9.27135C19.3802 8.90685 18.7806 8.91495 18.4322 9.26325L14.5025 13.1918L10.5729 9.26325C10.2326 8.92305 9.6168 8.90685 9.2684 9.27135C8.90379 9.61966 8.92 10.2272 9.2603 10.5674L13.19 14.496L9.2603 18.4326Z" fill="white"/>
</svg>
