<svg width="124" height="124" viewBox="0 0 124 124" fill="none" xmlns="http://www.w3.org/2000/svg">
<circle cx="62" cy="62" r="62" fill="url(#paint0_linear_24_8459)"/>
<circle cx="61.9995" cy="62" r="46.7925" fill="#12B76A"/>
<path d="M53.9129 84.6535C53.1338 85.4233 51.8805 85.4233 51.1014 84.6535L35.0002 68.7433C34.2079 67.9603 34.2079 66.6809 35.0002 65.898L40.787 60.1799C41.5669 59.4092 42.8219 59.4102 43.6006 60.1819L51.1007 67.615C51.8797 68.3871 53.1352 68.3877 53.915 67.6164L81.2451 40.583C82.0241 39.8125 83.278 39.8122 84.0573 40.5823L89.8455 46.3018C90.6378 47.0847 90.6378 48.3641 89.8455 49.147L53.9129 84.6535Z" fill="#FCFCFC"/>
<defs>
<linearGradient id="paint0_linear_24_8459" x1="229.109" y1="-324.531" x2="-13.0781" y2="202.953" gradientUnits="userSpaceOnUse">
<stop stop-color="#C1F5D5"/>
<stop offset="0.855854" stop-color="#C1F5D5" stop-opacity="0"/>
</linearGradient>
</defs>
</svg>
